<mxfile host="app.diagrams.net" modified="2022-04-27T09:27:49.648Z" agent="5.0 (Windows NT 10.0; Win64; x64) AppleWebKit/537.36 (KHTML, like Gecko) Chrome/100.0.4896.127 Safari/537.36 Edg/100.0.1185.50" etag="DIVFunNqxfrEFq3AHUL0" version="17.4.6" type="github">
  <diagram id="lxbI4s3srrqkW5saTyIi" name="Page-1">
    <mxGraphModel dx="711" dy="431" grid="1" gridSize="10" guides="1" tooltips="1" connect="1" arrows="1" fold="1" page="1" pageScale="1" pageWidth="850" pageHeight="1100" math="0" shadow="0">
      <root>
        <mxCell id="0" />
        <mxCell id="1" parent="0" />
        <mxCell id="OAQIttTcIutod0Quc-Ru-5" style="edgeStyle=orthogonalEdgeStyle;rounded=0;orthogonalLoop=1;jettySize=auto;html=1;entryX=0;entryY=0.5;entryDx=0;entryDy=0;entryPerimeter=0;" edge="1" parent="1" source="OAQIttTcIutod0Quc-Ru-1" target="OAQIttTcIutod0Quc-Ru-2">
          <mxGeometry relative="1" as="geometry" />
        </mxCell>
        <mxCell id="OAQIttTcIutod0Quc-Ru-6" value="②写入etcd" style="edgeLabel;html=1;align=center;verticalAlign=middle;resizable=0;points=[];" vertex="1" connectable="0" parent="OAQIttTcIutod0Quc-Ru-5">
          <mxGeometry x="-0.3592" relative="1" as="geometry">
            <mxPoint x="8" as="offset" />
          </mxGeometry>
        </mxCell>
        <mxCell id="OAQIttTcIutod0Quc-Ru-8" style="edgeStyle=orthogonalEdgeStyle;rounded=0;orthogonalLoop=1;jettySize=auto;html=1;" edge="1" parent="1" source="OAQIttTcIutod0Quc-Ru-1" target="OAQIttTcIutod0Quc-Ru-7">
          <mxGeometry relative="1" as="geometry" />
        </mxCell>
        <mxCell id="OAQIttTcIutod0Quc-Ru-9" value="③监听pod和node信息" style="edgeLabel;html=1;align=center;verticalAlign=middle;resizable=0;points=[];" vertex="1" connectable="0" parent="OAQIttTcIutod0Quc-Ru-8">
          <mxGeometry x="-0.2467" relative="1" as="geometry">
            <mxPoint as="offset" />
          </mxGeometry>
        </mxCell>
        <mxCell id="OAQIttTcIutod0Quc-Ru-1" value="kube-apiserver" style="rounded=0;whiteSpace=wrap;html=1;" vertex="1" parent="1">
          <mxGeometry x="240" y="210" width="100" height="40" as="geometry" />
        </mxCell>
        <mxCell id="OAQIttTcIutod0Quc-Ru-2" value="etcd键值数据库" style="shape=cylinder3;whiteSpace=wrap;html=1;boundedLbl=1;backgroundOutline=1;size=15;" vertex="1" parent="1">
          <mxGeometry x="420" y="190" width="60" height="80" as="geometry" />
        </mxCell>
        <mxCell id="OAQIttTcIutod0Quc-Ru-3" value="" style="endArrow=classic;html=1;rounded=0;entryX=0;entryY=0.5;entryDx=0;entryDy=0;" edge="1" parent="1" target="OAQIttTcIutod0Quc-Ru-1">
          <mxGeometry width="50" height="50" relative="1" as="geometry">
            <mxPoint x="200" y="230" as="sourcePoint" />
            <mxPoint x="430" y="210" as="targetPoint" />
          </mxGeometry>
        </mxCell>
        <mxCell id="OAQIttTcIutod0Quc-Ru-4" value="①用户创建pod" style="text;html=1;align=center;verticalAlign=middle;resizable=0;points=[];autosize=1;strokeColor=none;fillColor=none;" vertex="1" parent="1">
          <mxGeometry x="110" y="220" width="100" height="20" as="geometry" />
        </mxCell>
        <mxCell id="OAQIttTcIutod0Quc-Ru-7" value="kube-scheduler（红色部分为可扩展插件）" style="swimlane;" vertex="1" parent="1">
          <mxGeometry x="100" y="300" width="500" height="320" as="geometry" />
        </mxCell>
        <mxCell id="OAQIttTcIutod0Quc-Ru-10" value="pod1" style="rounded=0;whiteSpace=wrap;html=1;" vertex="1" parent="OAQIttTcIutod0Quc-Ru-7">
          <mxGeometry x="57.5" y="50" width="40" height="30" as="geometry" />
        </mxCell>
        <mxCell id="OAQIttTcIutod0Quc-Ru-13" value="pod2" style="rounded=0;whiteSpace=wrap;html=1;" vertex="1" parent="OAQIttTcIutod0Quc-Ru-7">
          <mxGeometry x="97.5" y="50" width="40" height="30" as="geometry" />
        </mxCell>
        <mxCell id="OAQIttTcIutod0Quc-Ru-14" value="pod3" style="rounded=0;whiteSpace=wrap;html=1;" vertex="1" parent="OAQIttTcIutod0Quc-Ru-7">
          <mxGeometry x="137.5" y="50" width="40" height="30" as="geometry" />
        </mxCell>
        <mxCell id="OAQIttTcIutod0Quc-Ru-15" value="..." style="rounded=0;whiteSpace=wrap;html=1;" vertex="1" parent="OAQIttTcIutod0Quc-Ru-7">
          <mxGeometry x="177.5" y="50" width="20" height="30" as="geometry" />
        </mxCell>
        <mxCell id="OAQIttTcIutod0Quc-Ru-16" value="ActiveQ" style="text;html=1;align=center;verticalAlign=middle;resizable=0;points=[];autosize=1;strokeColor=none;fillColor=none;" vertex="1" parent="OAQIttTcIutod0Quc-Ru-7">
          <mxGeometry x="87.5" y="30" width="60" height="20" as="geometry" />
        </mxCell>
        <mxCell id="OAQIttTcIutod0Quc-Ru-32" style="edgeStyle=orthogonalEdgeStyle;rounded=0;orthogonalLoop=1;jettySize=auto;html=1;" edge="1" parent="OAQIttTcIutod0Quc-Ru-7" source="OAQIttTcIutod0Quc-Ru-17" target="OAQIttTcIutod0Quc-Ru-25">
          <mxGeometry relative="1" as="geometry" />
        </mxCell>
        <mxCell id="OAQIttTcIutod0Quc-Ru-17" value="PreFilter" style="whiteSpace=wrap;html=1;fillColor=#f8cecc;strokeColor=#b85450;" vertex="1" parent="OAQIttTcIutod0Quc-Ru-7">
          <mxGeometry x="20" y="120" width="55" height="20" as="geometry" />
        </mxCell>
        <mxCell id="OAQIttTcIutod0Quc-Ru-33" style="edgeStyle=orthogonalEdgeStyle;rounded=0;orthogonalLoop=1;jettySize=auto;html=1;" edge="1" parent="OAQIttTcIutod0Quc-Ru-7" source="OAQIttTcIutod0Quc-Ru-25" target="OAQIttTcIutod0Quc-Ru-26">
          <mxGeometry relative="1" as="geometry" />
        </mxCell>
        <mxCell id="OAQIttTcIutod0Quc-Ru-25" value="Filter" style="whiteSpace=wrap;html=1;fillColor=#f8cecc;strokeColor=#b85450;" vertex="1" parent="OAQIttTcIutod0Quc-Ru-7">
          <mxGeometry x="100" y="120" width="55" height="20" as="geometry" />
        </mxCell>
        <mxCell id="OAQIttTcIutod0Quc-Ru-34" style="edgeStyle=orthogonalEdgeStyle;rounded=0;orthogonalLoop=1;jettySize=auto;html=1;" edge="1" parent="OAQIttTcIutod0Quc-Ru-7" source="OAQIttTcIutod0Quc-Ru-26" target="OAQIttTcIutod0Quc-Ru-27">
          <mxGeometry relative="1" as="geometry" />
        </mxCell>
        <mxCell id="OAQIttTcIutod0Quc-Ru-26" value="PreScore" style="whiteSpace=wrap;html=1;fillColor=#f8cecc;strokeColor=#b85450;" vertex="1" parent="OAQIttTcIutod0Quc-Ru-7">
          <mxGeometry x="180" y="120" width="55" height="20" as="geometry" />
        </mxCell>
        <mxCell id="OAQIttTcIutod0Quc-Ru-35" style="edgeStyle=orthogonalEdgeStyle;rounded=0;orthogonalLoop=1;jettySize=auto;html=1;" edge="1" parent="OAQIttTcIutod0Quc-Ru-7" source="OAQIttTcIutod0Quc-Ru-27" target="OAQIttTcIutod0Quc-Ru-28">
          <mxGeometry relative="1" as="geometry">
            <Array as="points">
              <mxPoint x="287" y="150" />
              <mxPoint x="47" y="150" />
            </Array>
          </mxGeometry>
        </mxCell>
        <mxCell id="OAQIttTcIutod0Quc-Ru-27" value="Score" style="whiteSpace=wrap;html=1;fillColor=#f8cecc;strokeColor=#b85450;" vertex="1" parent="OAQIttTcIutod0Quc-Ru-7">
          <mxGeometry x="260" y="120" width="55" height="20" as="geometry" />
        </mxCell>
        <mxCell id="OAQIttTcIutod0Quc-Ru-36" style="edgeStyle=orthogonalEdgeStyle;rounded=0;orthogonalLoop=1;jettySize=auto;html=1;" edge="1" parent="OAQIttTcIutod0Quc-Ru-7" source="OAQIttTcIutod0Quc-Ru-28" target="OAQIttTcIutod0Quc-Ru-29">
          <mxGeometry relative="1" as="geometry" />
        </mxCell>
        <mxCell id="OAQIttTcIutod0Quc-Ru-28" value="Reserve" style="whiteSpace=wrap;html=1;fillColor=#f8cecc;strokeColor=#b85450;" vertex="1" parent="OAQIttTcIutod0Quc-Ru-7">
          <mxGeometry x="20" y="170" width="55" height="20" as="geometry" />
        </mxCell>
        <mxCell id="OAQIttTcIutod0Quc-Ru-50" style="edgeStyle=orthogonalEdgeStyle;rounded=0;orthogonalLoop=1;jettySize=auto;html=1;entryX=0;entryY=0.5;entryDx=0;entryDy=0;" edge="1" parent="OAQIttTcIutod0Quc-Ru-7" source="OAQIttTcIutod0Quc-Ru-29" target="OAQIttTcIutod0Quc-Ru-49">
          <mxGeometry relative="1" as="geometry" />
        </mxCell>
        <mxCell id="OAQIttTcIutod0Quc-Ru-29" value="Permit" style="whiteSpace=wrap;html=1;fillColor=#f8cecc;strokeColor=#b85450;" vertex="1" parent="OAQIttTcIutod0Quc-Ru-7">
          <mxGeometry x="100" y="170" width="55" height="20" as="geometry" />
        </mxCell>
        <mxCell id="OAQIttTcIutod0Quc-Ru-39" style="edgeStyle=orthogonalEdgeStyle;rounded=0;orthogonalLoop=1;jettySize=auto;html=1;entryX=0;entryY=0.5;entryDx=0;entryDy=0;" edge="1" parent="OAQIttTcIutod0Quc-Ru-7" source="OAQIttTcIutod0Quc-Ru-30" target="OAQIttTcIutod0Quc-Ru-31">
          <mxGeometry relative="1" as="geometry" />
        </mxCell>
        <mxCell id="OAQIttTcIutod0Quc-Ru-30" value="PreBind" style="whiteSpace=wrap;html=1;fillColor=#f8cecc;strokeColor=#b85450;" vertex="1" parent="OAQIttTcIutod0Quc-Ru-7">
          <mxGeometry x="210" y="260" width="55" height="20" as="geometry" />
        </mxCell>
        <mxCell id="OAQIttTcIutod0Quc-Ru-71" style="edgeStyle=orthogonalEdgeStyle;rounded=0;orthogonalLoop=1;jettySize=auto;html=1;" edge="1" parent="OAQIttTcIutod0Quc-Ru-7" source="OAQIttTcIutod0Quc-Ru-31" target="OAQIttTcIutod0Quc-Ru-52">
          <mxGeometry relative="1" as="geometry">
            <Array as="points">
              <mxPoint x="460" y="270" />
              <mxPoint x="460" y="53" />
            </Array>
          </mxGeometry>
        </mxCell>
        <mxCell id="OAQIttTcIutod0Quc-Ru-72" value="绑定失败" style="edgeLabel;html=1;align=center;verticalAlign=middle;resizable=0;points=[];" vertex="1" connectable="0" parent="OAQIttTcIutod0Quc-Ru-71">
          <mxGeometry x="-0.0441" y="-1" relative="1" as="geometry">
            <mxPoint x="-31" y="-135" as="offset" />
          </mxGeometry>
        </mxCell>
        <mxCell id="OAQIttTcIutod0Quc-Ru-74" value="N" style="edgeLabel;html=1;align=center;verticalAlign=middle;resizable=0;points=[];" vertex="1" connectable="0" parent="OAQIttTcIutod0Quc-Ru-71">
          <mxGeometry x="-0.2405" relative="1" as="geometry">
            <mxPoint as="offset" />
          </mxGeometry>
        </mxCell>
        <mxCell id="OAQIttTcIutod0Quc-Ru-31" value="Bind" style="whiteSpace=wrap;html=1;fillColor=#f8cecc;strokeColor=#b85450;" vertex="1" parent="OAQIttTcIutod0Quc-Ru-7">
          <mxGeometry x="290" y="260" width="55" height="20" as="geometry" />
        </mxCell>
        <mxCell id="OAQIttTcIutod0Quc-Ru-40" value="" style="curved=1;endArrow=classic;html=1;rounded=0;exitX=0;exitY=0.5;exitDx=0;exitDy=0;entryX=0.5;entryY=0;entryDx=0;entryDy=0;" edge="1" parent="OAQIttTcIutod0Quc-Ru-7" source="OAQIttTcIutod0Quc-Ru-10" target="OAQIttTcIutod0Quc-Ru-17">
          <mxGeometry width="50" height="50" relative="1" as="geometry">
            <mxPoint x="190" y="160" as="sourcePoint" />
            <mxPoint x="240" y="110" as="targetPoint" />
            <Array as="points">
              <mxPoint x="50" y="70" />
            </Array>
          </mxGeometry>
        </mxCell>
        <mxCell id="OAQIttTcIutod0Quc-Ru-41" value="④取出队首pod调度" style="edgeLabel;html=1;align=center;verticalAlign=middle;resizable=0;points=[];" vertex="1" connectable="0" parent="OAQIttTcIutod0Quc-Ru-40">
          <mxGeometry x="0.0443" y="-1" relative="1" as="geometry">
            <mxPoint x="12" y="3" as="offset" />
          </mxGeometry>
        </mxCell>
        <mxCell id="OAQIttTcIutod0Quc-Ru-44" value="⑤串行执行得到调度结果并写入缓存" style="text;html=1;align=center;verticalAlign=middle;resizable=0;points=[];autosize=1;strokeColor=none;fillColor=none;" vertex="1" parent="OAQIttTcIutod0Quc-Ru-7">
          <mxGeometry x="65" y="200" width="210" height="20" as="geometry" />
        </mxCell>
        <mxCell id="OAQIttTcIutod0Quc-Ru-59" style="edgeStyle=orthogonalEdgeStyle;rounded=0;orthogonalLoop=1;jettySize=auto;html=1;" edge="1" parent="OAQIttTcIutod0Quc-Ru-7" source="OAQIttTcIutod0Quc-Ru-49" target="OAQIttTcIutod0Quc-Ru-58">
          <mxGeometry relative="1" as="geometry" />
        </mxCell>
        <mxCell id="OAQIttTcIutod0Quc-Ru-60" value="写入缓存" style="edgeLabel;html=1;align=center;verticalAlign=middle;resizable=0;points=[];" vertex="1" connectable="0" parent="OAQIttTcIutod0Quc-Ru-59">
          <mxGeometry x="-0.1357" y="2" relative="1" as="geometry">
            <mxPoint as="offset" />
          </mxGeometry>
        </mxCell>
        <mxCell id="OAQIttTcIutod0Quc-Ru-49" value="assume" style="whiteSpace=wrap;html=1;" vertex="1" parent="OAQIttTcIutod0Quc-Ru-7">
          <mxGeometry x="180" y="170" width="55" height="20" as="geometry" />
        </mxCell>
        <mxCell id="OAQIttTcIutod0Quc-Ru-51" value="PodBackOffQ" style="whiteSpace=wrap;html=1;fillColor=default;" vertex="1" parent="OAQIttTcIutod0Quc-Ru-7">
          <mxGeometry x="275" y="70" width="85" height="25" as="geometry" />
        </mxCell>
        <mxCell id="OAQIttTcIutod0Quc-Ru-52" value="UnSchedulableQ" style="whiteSpace=wrap;html=1;fillColor=default;" vertex="1" parent="OAQIttTcIutod0Quc-Ru-7">
          <mxGeometry x="275" y="40" width="105" height="25" as="geometry" />
        </mxCell>
        <mxCell id="OAQIttTcIutod0Quc-Ru-61" style="edgeStyle=orthogonalEdgeStyle;rounded=0;orthogonalLoop=1;jettySize=auto;html=1;" edge="1" parent="OAQIttTcIutod0Quc-Ru-7" source="OAQIttTcIutod0Quc-Ru-58" target="OAQIttTcIutod0Quc-Ru-51">
          <mxGeometry relative="1" as="geometry">
            <Array as="points">
              <mxPoint x="410" y="80" />
            </Array>
          </mxGeometry>
        </mxCell>
        <mxCell id="OAQIttTcIutod0Quc-Ru-62" value="发生冲突，失败" style="edgeLabel;html=1;align=center;verticalAlign=middle;resizable=0;points=[];" vertex="1" connectable="0" parent="OAQIttTcIutod0Quc-Ru-61">
          <mxGeometry x="-0.2094" relative="1" as="geometry">
            <mxPoint x="-2" y="-1" as="offset" />
          </mxGeometry>
        </mxCell>
        <mxCell id="OAQIttTcIutod0Quc-Ru-75" value="N" style="edgeLabel;html=1;align=center;verticalAlign=middle;resizable=0;points=[];" vertex="1" connectable="0" parent="OAQIttTcIutod0Quc-Ru-61">
          <mxGeometry x="-0.6552" relative="1" as="geometry">
            <mxPoint as="offset" />
          </mxGeometry>
        </mxCell>
        <mxCell id="OAQIttTcIutod0Quc-Ru-67" style="edgeStyle=orthogonalEdgeStyle;rounded=0;orthogonalLoop=1;jettySize=auto;html=1;" edge="1" parent="OAQIttTcIutod0Quc-Ru-7" source="OAQIttTcIutod0Quc-Ru-58" target="OAQIttTcIutod0Quc-Ru-30">
          <mxGeometry relative="1" as="geometry">
            <Array as="points">
              <mxPoint x="408" y="230" />
              <mxPoint x="238" y="230" />
            </Array>
          </mxGeometry>
        </mxCell>
        <mxCell id="OAQIttTcIutod0Quc-Ru-68" value="写入成功" style="edgeLabel;html=1;align=center;verticalAlign=middle;resizable=0;points=[];" vertex="1" connectable="0" parent="OAQIttTcIutod0Quc-Ru-67">
          <mxGeometry x="-0.2348" y="1" relative="1" as="geometry">
            <mxPoint x="-27" as="offset" />
          </mxGeometry>
        </mxCell>
        <mxCell id="OAQIttTcIutod0Quc-Ru-77" value="Y" style="edgeLabel;html=1;align=center;verticalAlign=middle;resizable=0;points=[];" vertex="1" connectable="0" parent="OAQIttTcIutod0Quc-Ru-67">
          <mxGeometry x="-0.894" y="1" relative="1" as="geometry">
            <mxPoint as="offset" />
          </mxGeometry>
        </mxCell>
        <mxCell id="OAQIttTcIutod0Quc-Ru-58" value="cache" style="whiteSpace=wrap;html=1;fillColor=default;" vertex="1" parent="OAQIttTcIutod0Quc-Ru-7">
          <mxGeometry x="378" y="165" width="60" height="30" as="geometry" />
        </mxCell>
        <mxCell id="OAQIttTcIutod0Quc-Ru-64" value="⑥并行将pod绑定到节点" style="text;html=1;align=center;verticalAlign=middle;resizable=0;points=[];autosize=1;strokeColor=none;fillColor=none;" vertex="1" parent="OAQIttTcIutod0Quc-Ru-7">
          <mxGeometry x="210" y="290" width="140" height="20" as="geometry" />
        </mxCell>
        <mxCell id="OAQIttTcIutod0Quc-Ru-42" value="" style="rounded=0;whiteSpace=wrap;html=1;fillColor=none;dashed=1;" vertex="1" parent="OAQIttTcIutod0Quc-Ru-7">
          <mxGeometry x="15" y="110" width="310" height="90" as="geometry" />
        </mxCell>
        <mxCell id="OAQIttTcIutod0Quc-Ru-66" value="" style="rounded=0;whiteSpace=wrap;html=1;fillColor=none;dashed=1;" vertex="1" parent="OAQIttTcIutod0Quc-Ru-7">
          <mxGeometry x="200" y="250" width="150" height="40" as="geometry" />
        </mxCell>
        <mxCell id="OAQIttTcIutod0Quc-Ru-53" value="" style="endArrow=classic;html=1;rounded=0;entryX=1;entryY=0.5;entryDx=0;entryDy=0;" edge="1" parent="1" target="OAQIttTcIutod0Quc-Ru-15">
          <mxGeometry width="50" height="50" relative="1" as="geometry">
            <mxPoint x="370" y="365" as="sourcePoint" />
            <mxPoint x="310" y="440" as="targetPoint" />
          </mxGeometry>
        </mxCell>
        <mxCell id="OAQIttTcIutod0Quc-Ru-54" value="定期推送" style="edgeLabel;html=1;align=center;verticalAlign=middle;resizable=0;points=[];" vertex="1" connectable="0" parent="OAQIttTcIutod0Quc-Ru-53">
          <mxGeometry x="-0.302" relative="1" as="geometry">
            <mxPoint x="-5" as="offset" />
          </mxGeometry>
        </mxCell>
        <mxCell id="OAQIttTcIutod0Quc-Ru-65" value="⑦调度成功" style="text;html=1;align=center;verticalAlign=middle;resizable=0;points=[];autosize=1;strokeColor=none;fillColor=none;" vertex="1" parent="1">
          <mxGeometry x="520" y="640" width="80" height="20" as="geometry" />
        </mxCell>
        <mxCell id="OAQIttTcIutod0Quc-Ru-69" style="edgeStyle=orthogonalEdgeStyle;rounded=0;orthogonalLoop=1;jettySize=auto;html=1;" edge="1" parent="1" source="OAQIttTcIutod0Quc-Ru-31" target="OAQIttTcIutod0Quc-Ru-65">
          <mxGeometry relative="1" as="geometry" />
        </mxCell>
        <mxCell id="OAQIttTcIutod0Quc-Ru-73" value="Y" style="edgeLabel;html=1;align=center;verticalAlign=middle;resizable=0;points=[];" vertex="1" connectable="0" parent="OAQIttTcIutod0Quc-Ru-69">
          <mxGeometry x="0.4732" y="1" relative="1" as="geometry">
            <mxPoint as="offset" />
          </mxGeometry>
        </mxCell>
      </root>
    </mxGraphModel>
  </diagram>
</mxfile>
